<?xml version="1.0" standalone="no"?><!DOCTYPE svg PUBLIC "-//W3C//DTD SVG 1.1//EN" "http://www.w3.org/Graphics/SVG/1.1/DTD/svg11.dtd"><svg t="1656658560683" class="icon" viewBox="0 0 1024 1024" version="1.1" xmlns="http://www.w3.org/2000/svg" p-id="3468" xmlns:xlink="http://www.w3.org/1999/xlink" width="200" height="200"><defs><style type="text/css">@font-face { font-family: feedback-iconfont; src: url("//at.alicdn.com/t/font_1031158_u69w8yhxdu.woff2?t=1630033759944") format("woff2"), url("//at.alicdn.com/t/font_1031158_u69w8yhxdu.woff?t=1630033759944") format("woff"), url("//at.alicdn.com/t/font_1031158_u69w8yhxdu.ttf?t=1630033759944") format("truetype"); }
</style></defs><path d="M704 640h64v64h-64zM704 576h64v64h-64zM704 512h64v64h-64zM704 448h64v64h-64zM704 256h64v64h-64zM640 768h64v64h-64zM640 704h64v64h-64zM640 640h64v64h-64z" fill="#333333" p-id="3469"></path><path d="M640 576h64v64h-64zM640 512h64v64h-64z" fill="#C98F5F" p-id="3470"></path><path d="M640 448h64v64h-64zM640 384h64v64h-64zM640 320h64v64h-64zM640 256h64v64h-64zM576 832h64v64h-64z" fill="#333333" p-id="3471"></path><path d="M576 768h64v64h-64zM576 704h64v64h-64z" fill="#914C13" p-id="3472"></path><path d="M576 640h64v64h-64z" fill="#333333" p-id="3473"></path><path d="M576 576h64v64h-64zM576 512h64v64h-64z" fill="#C98F5F" p-id="3474"></path><path d="M576 448h64v64h-64z" fill="#333333" p-id="3475"></path><path d="M576 384h64v64h-64zM576 320h64v64h-64z" fill="#914C13" p-id="3476"></path><path d="M576 256h64v64h-64z" fill="#333333" p-id="3477"></path><path d="M576 64h64v64h-64z" fill="#1D962E" p-id="3478"></path><path d="M512 832h64v64h-64z" fill="#333333" p-id="3479"></path><path d="M512 768h64v64h-64z" fill="#914C13" p-id="3480"></path><path d="M512 704h64v64h-64z" fill="#B57A40" p-id="3481"></path><path d="M512 640h64v64h-64z" fill="#333333" p-id="3482"></path><path d="M512 576h64v64h-64zM512 512h64v64h-64z" fill="#D1A175" p-id="3483"></path><path d="M512 448h64v64h-64z" fill="#333333" p-id="3484"></path><path d="M512 384h64v64h-64zM512 320h64v64h-64z" fill="#B57A40" p-id="3485"></path><path d="M512 256h64v64h-64z" fill="#333333" p-id="3486"></path><path d="M512 64h64v64h-64z" fill="#1D962E" p-id="3487"></path><path d="M448 832h64v64h-64z" fill="#333333" p-id="3488"></path><path d="M448 768h64v64h-64z" fill="#F4CFB0" p-id="3489"></path><path d="M448 704h64v64h-64z" fill="#B57A40" p-id="3490"></path><path d="M448 640h64v64h-64z" fill="#333333" p-id="3491"></path><path d="M448 576h64v64h-64zM448 512h64v64h-64z" fill="#D1A175" p-id="3492"></path><path d="M448 448h64v64h-64z" fill="#333333" p-id="3493"></path><path d="M448 384h64v64h-64zM448 320h64v64h-64z" fill="#B57A40" p-id="3494"></path><path d="M448 256h64v64h-64z" fill="#333333" p-id="3495"></path><path d="M448 192h64v64h-64zM448 128h64v64h-64zM448 64h64v64h-64z" fill="#1D962E" p-id="3496"></path><path d="M384 832h64v64h-64z" fill="#333333" p-id="3497"></path><path d="M384 768h64v64h-64zM384 704h64v64h-64z" fill="#F4CFB0" p-id="3498"></path><path d="M384 640h64v64h-64z" fill="#333333" p-id="3499"></path><path d="M384 576h64v64h-64zM384 512h64v64h-64z" fill="#D1A175" p-id="3500"></path><path d="M384 448h64v64h-64z" fill="#333333" p-id="3501"></path><path d="M384 384h64v64h-64zM384 320h64v64h-64z" fill="#F4CFB0" p-id="3502"></path><path d="M384 256h64v64h-64zM320 768h64v64h-64zM320 704h64v64h-64zM320 640h64v64h-64z" fill="#333333" p-id="3503"></path><path d="M320 576h64v64h-64zM320 512h64v64h-64z" fill="#DDB79B" p-id="3504"></path><path d="M320 448h64v64h-64zM320 384h64v64h-64zM320 320h64v64h-64zM320 256h64v64h-64zM256 640h64v64h-64zM256 576h64v64h-64zM256 512h64v64h-64zM256 448h64v64h-64zM256 256h64v64h-64z" fill="#333333" p-id="3505"></path></svg>