<?xml version="1.0" standalone="no"?><!DOCTYPE svg PUBLIC "-//W3C//DTD SVG 1.1//EN" "http://www.w3.org/Graphics/SVG/1.1/DTD/svg11.dtd"><svg t="1656658703953" class="icon" viewBox="0 0 1024 1024" version="1.1" xmlns="http://www.w3.org/2000/svg" p-id="1137" xmlns:xlink="http://www.w3.org/1999/xlink" width="200" height="200"><defs><style type="text/css">@font-face { font-family: feedback-iconfont; src: url("//at.alicdn.com/t/font_1031158_u69w8yhxdu.woff2?t=1630033759944") format("woff2"), url("//at.alicdn.com/t/font_1031158_u69w8yhxdu.woff?t=1630033759944") format("woff"), url("//at.alicdn.com/t/font_1031158_u69w8yhxdu.ttf?t=1630033759944") format("truetype"); }
</style></defs><path d="M263.2 820c-16.8 0-32-7.2-42.4-20s-15.2-28.8-12.8-44.8l51.2-320c4-27.2 28-47.2 55.2-47.2h388.8c27.2 0 50.4 19.2 55.2 46.4l57.6 320c3.2 16-1.6 32.8-12 45.6s-26.4 20-43.2 20H263.2z" fill="#FFBBBB" p-id="1138"></path><path d="M703.2 404c19.2 0 36 13.6 39.2 32.8l57.6 320c4.8 24.8-14.4 47.2-39.2 47.2H263.2c-24.8 0-43.2-22.4-39.2-46.4l51.2-320c3.2-19.2 20-33.6 39.2-33.6h388.8m0-32H314.4c-35.2 0-65.6 25.6-71.2 60.8l-51.2 320c-3.2 20.8 2.4 42.4 16 58.4s33.6 25.6 54.4 25.6H760c21.6 0 41.6-9.6 55.2-25.6 13.6-16.8 19.2-37.6 16-59.2l-57.6-320c-5.6-35.2-36-60-70.4-60z" fill="#EA4E4E" p-id="1139"></path><path d="M512 404h191.2c19.2 0 36 13.6 39.2 32.8l57.6 320c4.8 24.8-14.4 47.2-39.2 47.2H512" fill="#F4A4A4" p-id="1140"></path><path d="M421.6 588c-27.2 0-52.8-16-64-40.8l-51.2-112c-4.8-10.4-4-22.4 2.4-31.2 6.4-9.6 16.8-15.2 28-15.2h360.8c8 0 16 4 20 11.2s4.8 15.2 1.6 23.2l-58.4 128c-10.4 23.2-33.6 37.6-59.2 37.6l-180-0.8z" fill="#FFBBBB" p-id="1141"></path><path d="M696.8 404c5.6 0 9.6 6.4 7.2 11.2l-58.4 128c-8 17.6-25.6 28.8-44.8 28.8H421.6c-21.6 0-40.8-12-49.6-32l-51.2-112c-4.8-11.2 3.2-24 15.2-24h360.8m0-32H336c-16.8 0-32 8.8-40.8 22.4-8.8 14.4-10.4 31.2-3.2 46.4l51.2 112c14.4 30.4 44.8 50.4 78.4 50.4h180c31.2 0 60.8-18.4 73.6-47.2l58.4-128c5.6-12.8 4.8-26.4-2.4-38.4-8-10.4-20.8-17.6-34.4-17.6z" fill="#EA4E4E" p-id="1142"></path><path d="M512 404h184.8c5.6 0 9.6 6.4 7.2 11.2l-58.4 128c-8 17.6-25.6 28.8-44.8 28.8H512" fill="#F4A4A4" p-id="1143"></path><path d="M604 468c-8.8 0-16-7.2-16-16v-152c0-35.2-34.4-64-76-64s-76 28.8-76 64v152c0 8.8-7.2 16-16 16s-16-7.2-16-16v-152c0-52.8 48.8-96 108-96s108 43.2 108 96v152c0 8.8-7.2 16-16 16z" fill="#EA4E4E" p-id="1144"></path></svg>