<?xml version="1.0" standalone="no"?><!DOCTYPE svg PUBLIC "-//W3C//DTD SVG 1.1//EN" "http://www.w3.org/Graphics/SVG/1.1/DTD/svg11.dtd"><svg t="1656658730872" class="icon" viewBox="0 0 1024 1024" version="1.1" xmlns="http://www.w3.org/2000/svg" p-id="2226" xmlns:xlink="http://www.w3.org/1999/xlink" width="200" height="200"><defs><style type="text/css">@font-face { font-family: feedback-iconfont; src: url("//at.alicdn.com/t/font_1031158_u69w8yhxdu.woff2?t=1630033759944") format("woff2"), url("//at.alicdn.com/t/font_1031158_u69w8yhxdu.woff?t=1630033759944") format("woff"), url("//at.alicdn.com/t/font_1031158_u69w8yhxdu.ttf?t=1630033759944") format("truetype"); }
</style></defs><path d="M580 808.8c-16 0-28.8-11.2-31.2-27.2l-31.2-247.2-36 247.2c-3.2 16-16 26.4-31.2 26.4h-4.8l-225.6-35.2c-16.8-2.4-28.8-18.4-27.2-35.2l59.2-494.4c1.6-16 15.2-28 32-28h468.8c16 0 29.6 12 32 28l60 494.4c2.4 17.6-9.6 32.8-27.2 35.2L584.8 808c-1.6 0.8-3.2 0.8-4.8 0.8z" fill="#C2F9F7" p-id="2227"></path><path d="M752.8 231.2c8 0 15.2 6.4 16 14.4l60 494.4c0.8 8.8-4.8 16.8-13.6 17.6l-232.8 35.2h-2.4c-8 0-14.4-5.6-16-13.6l-31.2-246.4c-1.6-8.8-8.8-13.6-16-13.6s-14.4 4-16 12.8l-36 247.2c-1.6 8-8 12.8-16 12.8h-2.4l-225.6-35.2c-8.8-1.6-14.4-8.8-13.6-17.6l59.2-494.4c0.8-8 8-14.4 16-14.4l470.4 0.8m0-32H283.2c-24 0-44.8 18.4-48 42.4L176.8 736c-3.2 25.6 14.4 48.8 40 52.8l225.6 35.2c2.4 0 4.8 0.8 7.2 0.8 23.2 0 43.2-16.8 47.2-39.2V784l19.2-129.6 16 128.8v1.6c4 23.2 24 40 47.2 40 2.4 0 4.8 0 7.2-0.8l232.8-35.2c25.6-4 44-27.2 40.8-53.6L800 241.6c-3.2-24-23.2-42.4-47.2-42.4z" fill="#1DC8CC" p-id="2228"></path><path d="M516.8 520c7.2 0 14.4 4 16 13.6l31.2 246.4c1.6 8.8 9.6 14.4 18.4 13.6l232.8-35.2c8.8-1.6 14.4-8.8 13.6-17.6l-60.8-496c-0.8-8-8-14.4-16-14.4H516.8" fill="#A2F2E9" p-id="2229"></path><path d="M248 275.2h528v32H248zM191.56 720.12l4.952-31.616 292.448 45.792-4.96 31.616zM535.32 734.32l292.448-45.8 4.96 31.624-292.456 45.784z" fill="#1DC8CC" p-id="2230"></path><path d="M453.6 431.2c-3.2 0-6.4-0.8-8.8-2.4-7.2-4.8-9.6-15.2-4.8-22.4 15.2-23.2 26.4-39.2 7.2-71.2-26.4-43.2-4-79.2 11.2-92.8 6.4-5.6 16.8-4.8 22.4 2.4 5.6 6.4 4.8 16.8-1.6 22.4-4 3.2-22.4 22.4-4.8 51.2 29.6 48.8 8.8 80-8 105.6-2.4 4.8-8 7.2-12.8 7.2zM565.6 431.2c-3.2 0-6.4-0.8-8.8-2.4-7.2-4.8-9.6-15.2-4.8-22.4 15.2-23.2 26.4-39.2 7.2-71.2-26.4-43.2-4-79.2 11.2-92.8 6.4-5.6 16.8-4.8 22.4 2.4 5.6 6.4 4.8 16.8-1.6 22.4-4 3.2-22.4 22.4-4.8 51.2 29.6 48.8 8.8 80-8 105.6-2.4 4.8-8 7.2-12.8 7.2z" fill="#1DC8CC" p-id="2231"></path></svg>