<?xml version="1.0" standalone="no"?><!DOCTYPE svg PUBLIC "-//W3C//DTD SVG 1.1//EN" "http://www.w3.org/Graphics/SVG/1.1/DTD/svg11.dtd"><svg t="1656658558211" class="icon" viewBox="0 0 1024 1024" version="1.1" xmlns="http://www.w3.org/2000/svg" p-id="3282" xmlns:xlink="http://www.w3.org/1999/xlink" width="200" height="200"><defs><style type="text/css">@font-face { font-family: feedback-iconfont; src: url("//at.alicdn.com/t/font_1031158_u69w8yhxdu.woff2?t=1630033759944") format("woff2"), url("//at.alicdn.com/t/font_1031158_u69w8yhxdu.woff?t=1630033759944") format("woff"), url("//at.alicdn.com/t/font_1031158_u69w8yhxdu.ttf?t=1630033759944") format("truetype"); }
</style></defs><path d="M320 192h64v64h-64z" fill="#FFE8D9" p-id="3283"></path><path d="M704 512h64v64h-64zM704 448h64v64h-64zM704 384h64v64h-64z" fill="#333333" p-id="3284"></path><path d="M704 320h64v64h-64z" fill="#FFE8D9" p-id="3285"></path><path d="M640 576h64v64h-64z" fill="#333333" p-id="3286"></path><path d="M640 512h64v64h-64zM640 448h64v64h-64z" fill="#F4BB60" p-id="3287"></path><path d="M640 384h64v64h-64z" fill="#333333" p-id="3288"></path><path d="M640 320h64v64h-64zM640 256h64v64h-64z" fill="#FFDAC5" p-id="3289"></path><path d="M576 832h64v64h-64zM576 768h64v64h-64zM576 704h64v64h-64zM576 640h64v64h-64z" fill="#333333" p-id="3290"></path><path d="M576 576h64v64h-64zM576 512h64v64h-64z" fill="#F4BB60" p-id="3291"></path><path d="M576 448h64v64h-64z" fill="#F4D398" p-id="3292"></path><path d="M576 384h64v64h-64z" fill="#333333" p-id="3293"></path><path d="M576 320h64v64h-64z" fill="#ED4832" p-id="3294"></path><path d="M576 256h64v64h-64z" fill="#FFE8D9" p-id="3295"></path><path d="M576 192h64v64h-64z" fill="#FFDAC5" p-id="3296"></path><path d="M512 832h64v64h-64z" fill="#333333" p-id="3297"></path><path d="M512 768h64v64h-64zM512 704h64v64h-64zM512 640h64v64h-64z" fill="#F4BB60" p-id="3298"></path><path d="M512 576h64v64h-64zM512 512h64v64h-64zM512 448h64v64h-64z" fill="#F4D398" p-id="3299"></path><path d="M512 384h64v64h-64zM512 320h64v64h-64zM512 256h64v64h-64z" fill="#FFE8D9" p-id="3300"></path><path d="M512 192h64v64h-64z" fill="#FFDAC5" p-id="3301"></path><path d="M512 128h64v64h-64z" fill="#FFE8D9" p-id="3302"></path><path d="M448 832h64v64h-64z" fill="#333333" p-id="3303"></path><path d="M448 768h64v64h-64zM448 704h64v64h-64zM448 640h64v64h-64z" fill="#F9E4CA" p-id="3304"></path><path d="M448 576h64v64h-64zM448 512h64v64h-64z" fill="#F4D398" p-id="3305"></path><path d="M448 448h64v64h-64zM448 384h64v64h-64zM448 320h64v64h-64z" fill="#FFE8D9" p-id="3306"></path><path d="M448 256h64v64h-64z" fill="#FFDAC5" p-id="3307"></path><path d="M448 192h64v64h-64z" fill="#ED4832" p-id="3308"></path><path d="M448 128h64v64h-64zM448 64h64v64h-64z" fill="#FFE8D9" p-id="3309"></path><path d="M384 832h64v64h-64zM384 768h64v64h-64zM384 704h64v64h-64zM384 640h64v64h-64z" fill="#333333" p-id="3310"></path><path d="M384 576h64v64h-64z" fill="#F9E4CA" p-id="3311"></path><path d="M384 512h64v64h-64zM384 448h64v64h-64z" fill="#F4D398" p-id="3312"></path><path d="M384 384h64v64h-64z" fill="#333333" p-id="3313"></path><path d="M384 320h64v64h-64z" fill="#ED4832" p-id="3314"></path><path d="M384 256h64v64h-64zM384 192h64v64h-64z" fill="#FFE8D9" p-id="3315"></path><path d="M320 576h64v64h-64z" fill="#333333" p-id="3316"></path><path d="M320 512h64v64h-64zM320 448h64v64h-64z" fill="#F9E4CA" p-id="3317"></path><path d="M320 384h64v64h-64z" fill="#333333" p-id="3318"></path><path d="M320 320h64v64h-64zM320 256h64v64h-64z" fill="#FFE8D9" p-id="3319"></path><path d="M256 512h64v64h-64zM256 448h64v64h-64zM256 384h64v64h-64z" fill="#333333" p-id="3320"></path><path d="M256 320h64v64h-64z" fill="#FFE8D9" p-id="3321"></path></svg>