<?xml version="1.0" standalone="no"?><!DOCTYPE svg PUBLIC "-//W3C//DTD SVG 1.1//EN" "http://www.w3.org/Graphics/SVG/1.1/DTD/svg11.dtd"><svg t="1656658711241" class="icon" viewBox="0 0 1024 1024" version="1.1" xmlns="http://www.w3.org/2000/svg" p-id="1602" xmlns:xlink="http://www.w3.org/1999/xlink" width="200" height="200"><defs><style type="text/css">@font-face { font-family: feedback-iconfont; src: url("//at.alicdn.com/t/font_1031158_u69w8yhxdu.woff2?t=1630033759944") format("woff2"), url("//at.alicdn.com/t/font_1031158_u69w8yhxdu.woff?t=1630033759944") format("woff"), url("//at.alicdn.com/t/font_1031158_u69w8yhxdu.ttf?t=1630033759944") format("truetype"); }
</style></defs><path d="M296 358.4V224c0-9.6 8-17.6 17.6-17.6h396.8c9.6 0 17.6 8 17.6 17.6v134.4H296z" fill="#DEC7EF" p-id="1603"></path><path d="M710.4 222.4c0.8 0 1.6 0.8 1.6 1.6v118.4H312V224c0-0.8 0.8-1.6 1.6-1.6h396.8m0-32H313.6c-18.4 0-33.6 15.2-33.6 33.6v150.4h464V224c0-19.2-15.2-33.6-33.6-33.6z" fill="#9939D4" p-id="1604"></path><path d="M195.2 790.4c-8 0-15.2-4-19.2-9.6s-5.6-14.4-3.2-21.6l123.2-384c3.2-9.6 12-16.8 23.2-16.8h388c10.4 0 20 6.4 23.2 16.8l123.2 384c2.4 7.2 0.8 15.2-3.2 21.6-4.8 6.4-12 9.6-19.2 9.6H195.2z" fill="#DEC7EF" p-id="1605"></path><path d="M706.4 374.4c3.2 0 6.4 2.4 8 5.6l123.2 384c1.6 4.8-2.4 10.4-8 10.4H195.2c-5.6 0-9.6-5.6-8-10.4l123.2-384c0.8-3.2 4-5.6 8-5.6h388m0-32H317.6c-17.6 0-32.8 11.2-38.4 28l-123.2 384c-4 12-1.6 25.6 5.6 36 7.2 10.4 19.2 16.8 32 16.8h634.4c12.8 0 24.8-6.4 32-16.8 7.2-10.4 9.6-24 5.6-36L744 370.4c-4.8-16.8-20-28-37.6-28z" fill="#9939D4" p-id="1606"></path><path d="M318.824 798.72l103.92-439.896 35.032 8.28-103.92 439.888z" fill="#9939D4" p-id="1607"></path><path d="M512 374.4h194.4c3.2 0 6.4 2.4 8 5.6l123.2 384c1.6 4.8-2.4 10.4-8 10.4H512" fill="#CE9FE6" p-id="1608"></path><path d="M566.8 358.144l35.032-8.28 103.96 439.88-35.04 8.28z" fill="#9939D4" p-id="1609"></path><path d="M512 222.4h198.4c0.8 0 1.6 0.8 1.6 1.6v118.4H512" fill="#CE9FE6" p-id="1610"></path></svg>