<?xml version="1.0" standalone="no"?><!DOCTYPE svg PUBLIC "-//W3C//DTD SVG 1.1//EN" "http://www.w3.org/Graphics/SVG/1.1/DTD/svg11.dtd"><svg t="1656658723440" class="icon" viewBox="0 0 1024 1024" version="1.1" xmlns="http://www.w3.org/2000/svg" p-id="1916" xmlns:xlink="http://www.w3.org/1999/xlink" width="200" height="200"><defs><style type="text/css">@font-face { font-family: feedback-iconfont; src: url("//at.alicdn.com/t/font_1031158_u69w8yhxdu.woff2?t=1630033759944") format("woff2"), url("//at.alicdn.com/t/font_1031158_u69w8yhxdu.woff?t=1630033759944") format("woff"), url("//at.alicdn.com/t/font_1031158_u69w8yhxdu.ttf?t=1630033759944") format("truetype"); }
</style></defs><path d="M528.8 903.2c-101.6 0-191.2-28-205.6-35.2-12.8-6.4-20.8-10.4 14.4-215.2 16.8-97.6 36.8-200.8 40.8-217.6 1.6-7.2-0.8-32-3.2-54.4-6.4-63.2-15.2-142.4 27.2-163.2 5.6-3.2 12-4.8 18.4-4.8 36.8 0 66.4 45.6 92 89.6C566.4 218.4 594.4 208 610.4 208c10.4 0 19.2 4.8 26.4 12.8 28 35.2 24.8 98.4 21.6 160-0.8 17.6-1.6 33.6-1.6 48 11.2 68 17.6 122.4 24 180 7.2 64 15.2 135.2 31.2 236 1.6 10.4-4 21.6-13.6 25.6-48.8 22.4-105.6 32.8-169.6 32.8z" fill="#F3C0FF" p-id="1917"></path><path d="M611.2 224.8c4.8 0 9.6 2.4 13.6 7.2 32 40 16 134.4 16 198.4v1.6c23.2 141.6 24 220.8 54.4 415.2 0.8 3.2-1.6 7.2-4.8 8.8-52 23.2-108.8 31.2-162.4 31.2-101.6 0-188.8-28.8-199.2-33.6-16-8 56-382.4 64-414.4s-32-183.2 16-207.2c4-1.6 8-2.4 12-2.4 34.4 0 70.4 68 84.8 93.6 1.6 2.4 4 4 7.2 4 2.4 0 4.8-1.6 6.4-4 17.6-27.2 63.2-98.4 92-98.4m0-32c-20.8 0-48.8 10.4-96.8 80-24.8-40-55.2-76-92.8-76-8.8 0-17.6 2.4-25.6 6.4-52 26.4-43.2 111.2-36 179.2 1.6 17.6 4.8 41.6 3.2 48.8-4.8 17.6-24 119.2-41.6 218.4-9.6 56.8-16.8 102.4-20.8 136-7.2 56-9.6 84 15.2 96 16 8 108.8 36.8 212.8 36.8 66.4 0 124.8-11.2 175.2-33.6 16.8-7.2 25.6-24.8 23.2-43.2-16-100.8-24-171.2-30.4-233.6-6.4-57.6-12.8-112-24-180 0-13.6 0.8-29.6 1.6-46.4 3.2-64 7.2-130.4-24.8-170.4-9.6-11.2-23.2-18.4-38.4-18.4z" fill="#C44FE0" p-id="1918"></path><path d="M611.2 224c4.8 0 9.6 2.4 13.6 7.2 32 40 16 134.4 16 198.4v1.6c23.2 141.6 24 220.8 54.4 415.2 0.8 3.2-1.6 7.2-4.8 8.8-52 23.2-108.8 31.2-162.4 31.2-101.6 0-188.8-28.8-199.2-33.6-16-8 56-382.4 64-414.4s-32-183.2 16-207.2c4-1.6 8-2.4 12-2.4 34.4 0 70.4 68 84.8 93.6 1.6 2.4 4 4 7.2 4 2.4 0 4.8-1.6 6.4-4C536.8 295.2 582.4 224 611.2 224m0-32c-20.8 0-48.8 10.4-96.8 80-24.8-40-55.2-76-92.8-76-8.8 0-17.6 2.4-25.6 6.4-52 26.4-43.2 111.2-36 179.2 1.6 17.6 4.8 41.6 3.2 48.8-4.8 17.6-24 119.2-41.6 218.4-9.6 56.8-16.8 102.4-20.8 136-7.2 56-9.6 84 15.2 96 16 8 108.8 36.8 212.8 36.8 66.4 0 124.8-11.2 175.2-33.6 16.8-7.2 25.6-24.8 23.2-43.2-16-100.8-24-171.2-30.4-233.6-6.4-57.6-12.8-112-24-180 0-13.6 0.8-29.6 1.6-46.4 3.2-64 7.2-130.4-24.8-170.4-9.6-11.2-23.2-18.4-38.4-18.4z" fill="#C44FE0" p-id="1919"></path><path d="M427.2 224H424c-8.8-1.6-14.4-10.4-12-19.2l16-71.2c1.6-8.8 10.4-14.4 19.2-12 8.8 1.6 14.4 10.4 12 19.2l-16 71.2c-2.4 7.2-8.8 12-16 12z" fill="#C44FE0" p-id="1920"></path><path d="M602.4 224c-7.2 0-13.6-4.8-15.2-12.8l-16-71.2c-1.6-8.8 3.2-16.8 12-19.2 8.8-1.6 16.8 3.2 19.2 12l16 71.2c1.6 8.8-3.2 16.8-12 19.2-1.6 0.8-3.2 0.8-4 0.8z" fill="#C44FE0" p-id="1921"></path><path d="M511.2 887.2c60 3.2 120-3.2 180.8-30.4 3.2-1.6 4.8-4.8 4.8-8.8-31.2-194.4-31.2-274.4-54.4-415.2v-1.6c0-64 15.2-158.4-16.8-197.6-8.8-10.4-20-13.6-40.8 4.8-12 11.2-24 24-32 36-13.6 17.6-27.2 38.4-33.6 48.8-2.4 3.2-5.6 4.8-8 4.8" fill="#DE9AEF" p-id="1922"></path></svg>