<?xml version="1.0" standalone="no"?><!DOCTYPE svg PUBLIC "-//W3C//DTD SVG 1.1//EN" "http://www.w3.org/Graphics/SVG/1.1/DTD/svg11.dtd"><svg t="1656658555508" class="icon" viewBox="0 0 1024 1024" version="1.1" xmlns="http://www.w3.org/2000/svg" p-id="3046" xmlns:xlink="http://www.w3.org/1999/xlink" width="200" height="200"><defs><style type="text/css">@font-face { font-family: feedback-iconfont; src: url("//at.alicdn.com/t/font_1031158_u69w8yhxdu.woff2?t=1630033759944") format("woff2"), url("//at.alicdn.com/t/font_1031158_u69w8yhxdu.woff?t=1630033759944") format("woff"), url("//at.alicdn.com/t/font_1031158_u69w8yhxdu.ttf?t=1630033759944") format("truetype"); }
</style></defs><path d="M746.79 657.24h59.95v59.96h-59.95z" fill="#333333" p-id="3047"></path><path d="M746.79 357.49h59.95v59.95h-59.95z" fill="#F2A825" p-id="3048"></path><path d="M686.84 777.15h59.96v59.95h-59.96z" fill="#333333" p-id="3049"></path><path d="M686.84 717.19h59.96v59.96h-59.96z" fill="#333333" p-id="3050"></path><path d="M686.84 657.24h59.96v59.96h-59.96zM686.84 597.29h59.96v59.95h-59.96z" fill="#333333" p-id="3051"></path><path d="M686.84 477.39h59.96v59.95h-59.96z" fill="#15BA83" p-id="3052"></path><path d="M686.84 417.44h59.96v59.96h-59.96zM686.84 357.49h59.96v59.95h-59.96z" fill="#F2A825" p-id="3053"></path><path d="M686.84 297.53h59.96v59.96h-59.96z" fill="#FFCD50" p-id="3054"></path><path d="M626.89 837.1h59.95v59.96h-59.95z" fill="#333333" p-id="3055"></path><path d="M626.89 777.15h59.95v59.95h-59.95z" fill="#724422" p-id="3056"></path><path d="M626.89 717.19h59.95v59.96h-59.95z" fill="#724422" p-id="3057"></path><path d="M626.89 657.24h59.95v59.96h-59.95zM626.89 597.29h59.95v59.95h-59.95z" fill="#724422" p-id="3058"></path><path d="M626.89 537.34h59.95v59.96h-59.95zM626.89 477.39h59.95v59.95h-59.95z" fill="#15BA83" p-id="3059"></path><path d="M626.89 417.44h59.95v59.96h-59.95z" fill="#F2A825" p-id="3060"></path><path d="M626.89 357.49h59.95v59.95h-59.95z" fill="#FFCD50" p-id="3061"></path><path d="M626.89 297.53h59.95v59.96h-59.95z" fill="#FFFFFF" p-id="3062"></path><path d="M566.94 897.05h59.96V957h-59.96z" fill="#333333" p-id="3063"></path><path d="M566.94 837.1h59.96v59.96h-59.96z" fill="#724422" p-id="3064"></path><path d="M566.94 777.15h59.96v59.95h-59.96z" fill="#935F3B" p-id="3065"></path><path d="M566.94 717.19h59.96v59.96h-59.96z" fill="#935F3B" p-id="3066"></path><path d="M566.94 657.24h59.96v59.96h-59.96z" fill="#935F3B" p-id="3067"></path><path d="M566.94 597.29h59.96v59.95h-59.96z" fill="#724422" p-id="3068"></path><path d="M566.94 537.34h59.96v59.96h-59.96z" fill="#15BA83" p-id="3069"></path><path d="M566.94 477.39h59.96v59.95h-59.96z" fill="#F2A825" p-id="3070"></path><path d="M566.94 417.44h59.96v59.96h-59.96z" fill="#FFCD50" p-id="3071"></path><path d="M566.94 357.49h59.96v59.95h-59.96z" fill="#996725" p-id="3072"></path><path d="M566.94 297.53h59.96v59.96h-59.96z" fill="#FFCD50" p-id="3073"></path><path d="M566.94 237.59h59.96v59.95h-59.96zM566.94 177.63h59.96v59.96h-59.96z" fill="#F2A825" p-id="3074"></path><path d="M506.99 897.05h59.95V957h-59.95z" fill="#333333" p-id="3075"></path><path d="M506.99 837.1h59.95v59.96h-59.95z" fill="#724422" p-id="3076"></path><path d="M506.99 777.15h59.95v59.95h-59.95z" fill="#935F3B" p-id="3077"></path><path d="M506.99 717.19h59.95v59.96h-59.95z" fill="#935F3B" p-id="3078"></path><path d="M506.99 657.24h59.95v59.96h-59.95z" fill="#935F3B" p-id="3079"></path><path d="M506.99 597.29h59.95v59.95h-59.95z" fill="#724422" p-id="3080"></path><path d="M506.99 537.34h59.95v59.96h-59.95z" fill="#008253" p-id="3081"></path><path d="M506.99 477.39h59.95v59.95h-59.95z" fill="#FFCD50" p-id="3082"></path><path d="M506.99 417.44h59.95v59.96h-59.95z" fill="#996725" p-id="3083"></path><path d="M506.99 357.49h59.95v59.95h-59.95zM506.99 297.53h59.95v59.96h-59.95z" fill="#AA7D35" p-id="3084"></path><path d="M506.99 237.59h59.95v59.95h-59.95zM506.99 177.63h59.95v59.96h-59.95z" fill="#FFCD50" p-id="3085"></path><path d="M506.99 117.69h59.95v59.95h-59.95z" fill="#FFCD50" p-id="3086"></path><path d="M447.03 897.05h59.96V957h-59.96z" fill="#333333" p-id="3087"></path><path d="M447.03 837.1h59.96v59.96h-59.96z" fill="#724422" p-id="3088"></path><path d="M447.03 777.15h59.96v59.95h-59.96z" fill="#935F3B" p-id="3089"></path><path d="M447.03 717.19h59.96v59.96h-59.96z" fill="#935F3B" p-id="3090"></path><path d="M447.03 657.24h59.96v59.96h-59.96z" fill="#935F3B" p-id="3091"></path><path d="M447.03 597.29h59.96v59.95h-59.96z" fill="#724422" p-id="3092"></path><path d="M447.03 537.34h59.96v59.96h-59.96z" fill="#008253" p-id="3093"></path><path d="M447.03 477.39h59.96v59.95h-59.96z" fill="#FFCD50" p-id="3094"></path><path d="M447.03 417.44h59.96v59.96h-59.96zM447.03 357.49h59.96v59.95h-59.96z" fill="#AA7D35" p-id="3095"></path><path d="M447.03 297.53h59.96v59.96h-59.96z" fill="#BC9864" p-id="3096"></path><path d="M447.03 237.59h59.96v59.95h-59.96zM447.03 177.63h59.96v59.96h-59.96z" fill="#FFCD50" p-id="3097"></path><path d="M447.03 117.69h59.96v59.95h-59.96z" fill="#FFD578" p-id="3098"></path><path d="M387.08 897.05h59.96V957h-59.96z" fill="#333333" p-id="3099"></path><path d="M387.08 837.1h59.96v59.96h-59.96z" fill="#724422" p-id="3100"></path><path d="M387.08 777.15h59.96v59.95h-59.96z" fill="#935F3B" p-id="3101"></path><path d="M387.08 717.19h59.96v59.96h-59.96z" fill="#F4CAAE" p-id="3102"></path><path d="M387.08 657.24h59.96v59.96h-59.96z" fill="#F4CAAE" p-id="3103"></path><path d="M387.08 597.29h59.96v59.95h-59.96z" fill="#724422" p-id="3104"></path><path d="M387.08 537.34h59.96v59.96h-59.96z" fill="#15BA83" p-id="3105"></path><path d="M387.08 477.39h59.96v59.95h-59.96z" fill="#FFCD50" p-id="3106"></path><path d="M387.08 417.44h59.96v59.96h-59.96z" fill="#FFCD50" p-id="3107"></path><path d="M387.08 357.49h59.96v59.95h-59.96z" fill="#BC9864" p-id="3108"></path><path d="M387.08 297.53h59.96v59.96h-59.96z" fill="#FFCD50" p-id="3109"></path><path d="M387.08 237.59h59.96v59.95h-59.96z" fill="#FFFFFF" p-id="3110"></path><path d="M387.08 177.63h59.96v59.96h-59.96z" fill="#FFD578" p-id="3111"></path><path d="M327.13 837.1h59.95v59.96h-59.95z" fill="#333333" p-id="3112"></path><path d="M327.13 777.15h59.95v59.95h-59.95z" fill="#BF835A" p-id="3113"></path><path d="M327.13 717.19h59.95v59.96h-59.95z" fill="#BF835A" p-id="3114"></path><path d="M327.13 657.24h59.95v59.96h-59.95z" fill="#BF835A" p-id="3115"></path><path d="M327.13 597.29h59.95v59.95h-59.95z" fill="#724422" p-id="3116"></path><path d="M327.13 537.34h59.95v59.96h-59.95zM327.13 477.39h59.95v59.95h-59.95z" fill="#15BA83" p-id="3117"></path><path d="M327.13 417.44h59.95v59.96h-59.95z" fill="#FFFFFF" p-id="3118"></path><path d="M327.13 357.49h59.95v59.95h-59.95zM327.13 297.53h59.95v59.96h-59.95z" fill="#FFCD50" p-id="3119"></path><path d="M267.18 777.15h59.96v59.95h-59.96z" fill="#333333" p-id="3120"></path><path d="M267.18 717.19h59.96v59.96h-59.96z" fill="#333333" p-id="3121"></path><path d="M267.18 657.24h59.96v59.96h-59.96zM267.18 597.29h59.96v59.95h-59.96z" fill="#333333" p-id="3122"></path><path d="M267.18 477.39h59.96v59.95h-59.96z" fill="#3DE2A7" p-id="3123"></path><path d="M267.18 417.44h59.96v59.96h-59.96zM267.18 357.49h59.96v59.95h-59.96z" fill="#FFCD50" p-id="3124"></path><path d="M267.18 297.53h59.96v59.96h-59.96z" fill="#FFD578" p-id="3125"></path><path d="M207.23 657.24h59.95v59.96h-59.95z" fill="#333333" p-id="3126"></path><path d="M207.23 357.49h59.95v59.95h-59.95z" fill="#FFD578" p-id="3127"></path></svg>