<?xml version="1.0" standalone="no"?><!DOCTYPE svg PUBLIC "-//W3C//DTD SVG 1.1//EN" "http://www.w3.org/Graphics/SVG/1.1/DTD/svg11.dtd"><svg t="1656658727198" class="icon" viewBox="0 0 1024 1024" version="1.1" xmlns="http://www.w3.org/2000/svg" p-id="2071" xmlns:xlink="http://www.w3.org/1999/xlink" width="200" height="200"><defs><style type="text/css">@font-face { font-family: feedback-iconfont; src: url("//at.alicdn.com/t/font_1031158_u69w8yhxdu.woff2?t=1630033759944") format("woff2"), url("//at.alicdn.com/t/font_1031158_u69w8yhxdu.woff?t=1630033759944") format("woff"), url("//at.alicdn.com/t/font_1031158_u69w8yhxdu.ttf?t=1630033759944") format("truetype"); }
</style></defs><path d="M584.8 862.4c-16 0-29.6-12-32-27.2L512 413.6l-41.6 420c-2.4 16-16 28-32 28H312c-17.6 0-32-14.4-32-32v-640c0-17.6 14.4-32 32-32h400c17.6 0 32 14.4 32 32v640c0 17.6-14.4 32-32 32H584.8v0.8z" fill="#B3FFF0" p-id="2072"></path><path d="M712 174.4c8.8 0 16 7.2 16 16v640c0 8.8-7.2 16-16 16H584.8c-8 0-14.4-5.6-16-13.6L528 411.2c-1.6-8.8-8.8-13.6-16-13.6s-14.4 4.8-16 13.6L454.4 832c-0.8 8-8 13.6-16 13.6H312c-8.8 0-16-7.2-16-16v-640c0-8.8 7.2-16 16-16h400m0-31.2H312c-26.4 0-48 21.6-48 48v640c0 26.4 21.6 48 48 48h127.2c24 0 44-17.6 47.2-40.8v-1.6L512 578.4l24.8 256.8v1.6c3.2 23.2 24 40.8 47.2 40.8h128c26.4 0 48-21.6 48-48v-640c0-26.4-21.6-47.2-48-47.2z" fill="#13BB9F" p-id="2073"></path><path d="M512 174.4h200c8.8 0 16 7.2 16 16v640c0 8.8-7.2 16-16 16H584.8c-8 0-14.4-5.6-16-13.6L528 411.2c-1.6-8.8-8.8-13.6-16-13.6" fill="#9AE8D9" p-id="2074"></path><path d="M296 214.4h432v32H296zM352 170.4h32v44h-32zM448 170.4h32v44h-32zM544 170.4h32v44h-32zM640 170.4h32v44h-32z" fill="#13BB9F" p-id="2075"></path><path d="M316 266.4c-2.4 0-4-1.6-4-4v-20c0-2.4 1.6-4 4-4s4 1.6 4 4v20c0 2.4-1.6 4-4 4zM316 796c-2.4 0-4-1.6-4-4v-37.6c0-2.4 1.6-4 4-4s4 1.6 4 4V792c0 2.4-1.6 4-4 4z m0-75.2c-2.4 0-4-1.6-4-4v-37.6c0-2.4 1.6-4 4-4s4 1.6 4 4v37.6c0 1.6-1.6 4-4 4z m0-76c-2.4 0-4-1.6-4-4v-37.6c0-2.4 1.6-4 4-4s4 1.6 4 4v37.6c0 2.4-1.6 4-4 4z m0-76c-2.4 0-4-1.6-4-4v-37.6c0-2.4 1.6-4 4-4s4 1.6 4 4v37.6c0 2.4-1.6 4-4 4z m0-75.2c-2.4 0-4-1.6-4-4v-37.6c0-2.4 1.6-4 4-4s4 1.6 4 4v37.6c0 1.6-1.6 4-4 4z m0-76c-2.4 0-4-1.6-4-4V376c0-2.4 1.6-4 4-4s4 1.6 4 4v37.6c0 2.4-1.6 4-4 4z m0-76c-2.4 0-4-1.6-4-4v-37.6c0-2.4 1.6-4 4-4s4 1.6 4 4v37.6c0 2.4-1.6 4-4 4zM316 854.4c-2.4 0-4-1.6-4-4v-20c0-2.4 1.6-4 4-4s4 1.6 4 4v20c0 2.4-1.6 4-4 4z" fill="#13BB9F" p-id="2076"></path><path d="M708 266.4c-2.4 0-4-1.6-4-4v-20c0-2.4 1.6-4 4-4s4 1.6 4 4v20c0 2.4-1.6 4-4 4zM708 796c-2.4 0-4-1.6-4-4v-37.6c0-2.4 1.6-4 4-4s4 1.6 4 4V792c0 2.4-1.6 4-4 4z m0-75.2c-2.4 0-4-1.6-4-4v-37.6c0-2.4 1.6-4 4-4s4 1.6 4 4v37.6c0 1.6-1.6 4-4 4z m0-76c-2.4 0-4-1.6-4-4v-37.6c0-2.4 1.6-4 4-4s4 1.6 4 4v37.6c0 2.4-1.6 4-4 4z m0-76c-2.4 0-4-1.6-4-4v-37.6c0-2.4 1.6-4 4-4s4 1.6 4 4v37.6c0 2.4-1.6 4-4 4z m0-75.2c-2.4 0-4-1.6-4-4v-37.6c0-2.4 1.6-4 4-4s4 1.6 4 4v37.6c0 1.6-1.6 4-4 4z m0-76c-2.4 0-4-1.6-4-4V376c0-2.4 1.6-4 4-4s4 1.6 4 4v37.6c0 2.4-1.6 4-4 4z m0-76c-2.4 0-4-1.6-4-4v-37.6c0-2.4 1.6-4 4-4s4 1.6 4 4v37.6c0 2.4-1.6 4-4 4zM708 854.4c-2.4 0-4-1.6-4-4v-20c0-2.4 1.6-4 4-4s4 1.6 4 4v20c0 2.4-1.6 4-4 4z" fill="#13BB9F" p-id="2077"></path></svg>