<?xml version="1.0" standalone="no"?><!DOCTYPE svg PUBLIC "-//W3C//DTD SVG 1.1//EN" "http://www.w3.org/Graphics/SVG/1.1/DTD/svg11.dtd"><svg t="1656658709114" class="icon" viewBox="0 0 1024 1024" version="1.1" xmlns="http://www.w3.org/2000/svg" p-id="1446" xmlns:xlink="http://www.w3.org/1999/xlink" width="200" height="200"><defs><style type="text/css">@font-face { font-family: feedback-iconfont; src: url("//at.alicdn.com/t/font_1031158_u69w8yhxdu.woff2?t=1630033759944") format("woff2"), url("//at.alicdn.com/t/font_1031158_u69w8yhxdu.woff?t=1630033759944") format("woff"), url("//at.alicdn.com/t/font_1031158_u69w8yhxdu.ttf?t=1630033759944") format("truetype"); }
</style></defs><path d="M328 870.4c-17.6 0-32-14.4-32-32v-656c0-17.6 14.4-32 32-32h368c17.6 0 32 14.4 32 32v655.2c0 17.6-14.4 32-32 32H328z" fill="#D7BDFF" p-id="1447"></path><path d="M696 166.4c8.8 0 16 7.2 16 16v655.2c0 8.8-7.2 16-16 16H328c-8.8 0-16-7.2-16-16V182.4c0-8.8 7.2-16 16-16h368m0-32H328c-26.4 0-48 21.6-48 48v655.2c0 26.4 21.6 48 48 48h368c26.4 0 48-21.6 48-48V182.4c0-26.4-21.6-48-48-48z" fill="#8852DD" p-id="1448"></path><path d="M512 166.4h184c8.8 0 16 7.2 16 16v655.2c0 8.8-7.2 16-16 16H512" fill="#BCA0F2" p-id="1449"></path><path d="M528 858.4h-32v-520c0-8.8 7.2-16 16-16s16 7.2 16 16v520zM308 202.4h408v32h-408z" fill="#8852DD" p-id="1450"></path><path d="M444 394.4c-8.8 0-16-7.2-16-16v-144h32v144c0 8.8-7.2 16-16 16zM580 394.4c-8.8 0-16-7.2-16-16v-144h32v144c0 8.8-7.2 16-16 16zM308 786.4h192v32h-192zM524 786.4h192v32h-192z" fill="#8852DD" p-id="1451"></path></svg>