<?xml version="1.0" standalone="no"?><!DOCTYPE svg PUBLIC "-//W3C//DTD SVG 1.1//EN" "http://www.w3.org/Graphics/SVG/1.1/DTD/svg11.dtd"><svg t="1656658540311" class="icon" viewBox="0 0 1024 1024" version="1.1" xmlns="http://www.w3.org/2000/svg" p-id="2444" xmlns:xlink="http://www.w3.org/1999/xlink" width="200" height="200"><defs><style type="text/css">@font-face { font-family: feedback-iconfont; src: url("//at.alicdn.com/t/font_1031158_u69w8yhxdu.woff2?t=1630033759944") format("woff2"), url("//at.alicdn.com/t/font_1031158_u69w8yhxdu.woff?t=1630033759944") format("woff"), url("//at.alicdn.com/t/font_1031158_u69w8yhxdu.ttf?t=1630033759944") format("truetype"); }
</style></defs><path d="M729.74 845.88h59.15v59.14h-59.15zM729.74 786.73h59.15v59.15h-59.15zM729.74 727.58h59.15v59.14h-59.15zM729.74 668.43h59.15v59.15h-59.15zM729.74 609.29h59.15v59.14h-59.15zM729.74 550.14h59.15v59.15h-59.15zM729.74 490.99h59.15v59.14h-59.15zM729.74 431.84h59.15v59.15h-59.15zM729.74 372.7h59.15v59.14h-59.15zM729.74 313.54h59.15v59.15h-59.15z" fill="#333333" p-id="2445"></path><path d="M729.74 136.1h59.15v59.15h-59.15zM729.74 76.95h59.15v59.14h-59.15z" fill="#070707" p-id="2446"></path><path d="M670.6 845.88h59.14v59.14H670.6zM670.6 786.73h59.14v59.15H670.6z" fill="#333333" p-id="2447"></path><path d="M670.6 727.58h59.14v59.14H670.6zM670.6 668.43h59.14v59.15H670.6zM670.6 609.29h59.14v59.14H670.6zM670.6 550.14h59.14v59.15H670.6zM670.6 490.99h59.14v59.14H670.6zM670.6 431.84h59.14v59.15H670.6zM670.6 372.7h59.14v59.14H670.6z" fill="#F4A300" p-id="2448"></path><path d="M670.6 313.54h59.14v59.15H670.6zM670.6 254.39h59.14v59.15H670.6z" fill="#333333" p-id="2449"></path><path d="M670.6 136.1h59.14v59.15H670.6z" fill="#070707" p-id="2450"></path><path d="M611.45 845.88h59.15v59.14h-59.15z" fill="#333333" p-id="2451"></path><path d="M611.45 786.73h59.15v59.15h-59.15zM611.45 727.58h59.15v59.14h-59.15z" fill="#F4A300" p-id="2452"></path><path d="M611.45 668.43h59.15v59.15h-59.15zM611.45 609.29h59.15v59.14h-59.15zM611.45 550.14h59.15v59.15h-59.15zM611.45 490.99h59.15v59.14h-59.15zM611.45 431.84h59.15v59.15h-59.15z" fill="#FFCD50" p-id="2453"></path><path d="M611.45 372.7h59.15v59.14h-59.15zM611.45 313.54h59.15v59.15h-59.15z" fill="#F4A300" p-id="2454"></path><path d="M611.45 254.39h59.15v59.15h-59.15zM611.45 195.25h59.15v59.14h-59.15z" fill="#333333" p-id="2455"></path><path d="M611.45 136.1h59.15v59.15h-59.15z" fill="#070707" p-id="2456"></path><path d="M552.3 845.88h59.14v59.14H552.3z" fill="#333333" p-id="2457"></path><path d="M552.3 786.73h59.14v59.15H552.3z" fill="#F4A300" p-id="2458"></path><path d="M552.3 727.58h59.14v59.14H552.3zM552.3 668.43h59.14v59.15H552.3zM552.3 609.29h59.14v59.14H552.3zM552.3 550.14h59.14v59.15H552.3z" fill="#FFCD50" p-id="2459"></path><path d="M552.3 490.99h59.14v59.14H552.3zM552.3 431.84h59.14v59.15H552.3z" fill="#333333" p-id="2460"></path><path d="M552.3 372.7h59.14v59.14H552.3z" fill="#FFCD50" p-id="2461"></path><path d="M552.3 313.54h59.14v59.15H552.3zM552.3 254.39h59.14v59.15H552.3z" fill="#F4A300" p-id="2462"></path><path d="M552.3 195.25h59.14v59.14H552.3z" fill="#070707" p-id="2463"></path><path d="M552.3 136.1h59.14v59.15H552.3zM493.15 845.88h59.15v59.14h-59.15z" fill="#333333" p-id="2464"></path><path d="M493.15 786.73h59.15v59.15h-59.15z" fill="#F4A300" p-id="2465"></path><path d="M493.15 727.58h59.15v59.14h-59.15zM493.15 668.43h59.15v59.15h-59.15zM493.15 609.29h59.15v59.14h-59.15zM493.15 550.14h59.15v59.15h-59.15zM493.15 490.99h59.15v59.14h-59.15zM493.15 431.84h59.15v59.15h-59.15zM493.15 372.7h59.15v59.14h-59.15z" fill="#FFCD50" p-id="2466"></path><path d="M493.15 313.54h59.15v59.15h-59.15z" fill="#FFFFFF" p-id="2467"></path><path d="M493.15 254.39h59.15v59.15h-59.15z" fill="#070707" p-id="2468"></path><path d="M493.15 195.25h59.15v59.14h-59.15z" fill="#F4A300" p-id="2469"></path><path d="M493.15 136.1h59.15v59.15h-59.15zM434.01 845.88h59.14v59.14h-59.14z" fill="#333333" p-id="2470"></path><path d="M434.01 786.73h59.14v59.15h-59.14z" fill="#F4A300" p-id="2471"></path><path d="M434.01 727.58h59.14v59.14h-59.14zM434.01 668.43h59.14v59.15h-59.14zM434.01 609.29h59.14v59.14h-59.14zM434.01 550.14h59.14v59.15h-59.14zM434.01 490.99h59.14v59.14h-59.14zM434.01 431.84h59.14v59.15h-59.14zM434.01 372.7h59.14v59.14h-59.14z" fill="#FFCD50" p-id="2472"></path><path d="M434.01 313.54h59.14v59.15h-59.14zM434.01 254.39h59.14v59.15h-59.14z" fill="#FFFFFF" p-id="2473"></path><path d="M434.01 195.25h59.14v59.14h-59.14z" fill="#F4A300" p-id="2474"></path><path d="M434.01 136.1h59.14v59.15h-59.14zM374.85 845.88H434v59.14h-59.15z" fill="#333333" p-id="2475"></path><path d="M374.85 786.73H434v59.15h-59.15z" fill="#F4A300" p-id="2476"></path><path d="M374.85 727.58H434v59.14h-59.15zM374.85 668.43H434v59.15h-59.15zM374.85 609.29H434v59.14h-59.15zM374.85 550.14H434v59.15h-59.15z" fill="#FFCD50" p-id="2477"></path><path d="M374.85 490.99H434v59.14h-59.15zM374.85 431.84H434v59.15h-59.15z" fill="#333333" p-id="2478"></path><path d="M374.85 372.7H434v59.14h-59.15zM374.85 313.54H434v59.15h-59.15z" fill="#FFCD50" p-id="2479"></path><path d="M374.85 254.39H434v59.15h-59.15z" fill="#FFD892" p-id="2480"></path><path d="M374.85 195.25H434v59.14h-59.15zM374.85 136.1H434v59.15h-59.15zM315.71 845.88h59.14v59.14h-59.14z" fill="#333333" p-id="2481"></path><path d="M315.71 786.73h59.14v59.15h-59.14z" fill="#FFD892" p-id="2482"></path><path d="M315.71 727.58h59.14v59.14h-59.14zM315.71 668.43h59.14v59.15h-59.14zM315.71 609.29h59.14v59.14h-59.14zM315.71 550.14h59.14v59.15h-59.14zM315.71 490.99h59.14v59.14h-59.14zM315.71 431.84h59.14v59.15h-59.14zM315.71 372.7h59.14v59.14h-59.14z" fill="#FFCD50" p-id="2483"></path><path d="M315.71 313.54h59.14v59.15h-59.14z" fill="#FFD892" p-id="2484"></path><path d="M315.71 254.39h59.14v59.15h-59.14zM315.71 195.25h59.14v59.14h-59.14zM256.56 845.88h59.15v59.14h-59.15zM256.56 786.73h59.15v59.15h-59.15z" fill="#333333" p-id="2485"></path><path d="M256.56 727.58h59.15v59.14h-59.15zM256.56 668.43h59.15v59.15h-59.15zM256.56 609.29h59.15v59.14h-59.15zM256.56 550.14h59.15v59.15h-59.15zM256.56 490.99h59.15v59.14h-59.15zM256.56 431.84h59.15v59.15h-59.15zM256.56 372.7h59.15v59.14h-59.15z" fill="#FFD892" p-id="2486"></path><path d="M256.56 313.54h59.15v59.15h-59.15zM256.56 254.39h59.15v59.15h-59.15zM197.41 845.88h59.15v59.14h-59.15zM197.41 786.73h59.15v59.15h-59.15zM197.41 727.58h59.15v59.14h-59.15zM197.41 668.43h59.15v59.15h-59.15zM197.41 609.29h59.15v59.14h-59.15zM197.41 550.14h59.15v59.15h-59.15zM197.41 490.99h59.15v59.14h-59.15zM197.41 431.84h59.15v59.15h-59.15zM197.41 372.7h59.15v59.14h-59.15zM197.41 313.54h59.15v59.15h-59.15z" fill="#333333" p-id="2487"></path></svg>