<?xml version="1.0" standalone="no"?><!DOCTYPE svg PUBLIC "-//W3C//DTD SVG 1.1//EN" "http://www.w3.org/Graphics/SVG/1.1/DTD/svg11.dtd"><svg t="1656658535515" class="icon" viewBox="0 0 1024 1024" version="1.1" xmlns="http://www.w3.org/2000/svg" p-id="2244" xmlns:xlink="http://www.w3.org/1999/xlink" width="200" height="200"><defs><style type="text/css">@font-face { font-family: feedback-iconfont; src: url("//at.alicdn.com/t/font_1031158_u69w8yhxdu.woff2?t=1630033759944") format("woff2"), url("//at.alicdn.com/t/font_1031158_u69w8yhxdu.woff?t=1630033759944") format("woff"), url("//at.alicdn.com/t/font_1031158_u69w8yhxdu.ttf?t=1630033759944") format("truetype"); }
</style></defs><path d="M867.64 598.98h59.14v59.14h-59.14zM867.64 539.83h59.14v59.15h-59.14zM867.64 480.68h59.14v59.14h-59.14zM867.64 421.53h59.14v59.15h-59.14zM808.49 658.12h59.15v59.15h-59.15z" fill="#333333" p-id="2245"></path><path d="M808.49 598.98h59.15v59.14h-59.15zM808.49 539.83h59.15v59.15h-59.15zM808.49 480.68h59.15v59.14h-59.15zM808.49 421.53h59.15v59.15h-59.15z" fill="#0B80E0" p-id="2246"></path><path d="M808.49 362.39h59.15v59.14h-59.15zM749.34 717.27h59.14v59.14h-59.14zM749.34 658.12h59.14v59.15h-59.14z" fill="#333333" p-id="2247"></path><path d="M749.34 598.98h59.14v59.14h-59.14z" fill="#0B80E0" p-id="2248"></path><path d="M749.34 539.83h59.14v59.15h-59.14zM749.34 480.68h59.14v59.14h-59.14zM749.34 421.53h59.14v59.15h-59.14z" fill="#7CC0F2" p-id="2249"></path><path d="M749.34 362.39h59.14v59.14h-59.14z" fill="#0B80E0" p-id="2250"></path><path d="M749.34 303.24h59.14v59.15h-59.14zM690.19 717.27h59.15v59.14h-59.15z" fill="#333333" p-id="2251"></path><path d="M690.19 658.12h59.15v59.15h-59.15z" fill="#0B80E0" p-id="2252"></path><path d="M690.19 598.98h59.15v59.14h-59.15zM690.19 539.83h59.15v59.15h-59.15zM690.19 480.68h59.15v59.14h-59.15zM690.19 421.53h59.15v59.15h-59.15zM690.19 362.39h59.15v59.14h-59.15z" fill="#7CC0F2" p-id="2253"></path><path d="M690.19 303.24h59.15v59.15h-59.15z" fill="#0B80E0" p-id="2254"></path><path d="M690.19 244.08h59.15v59.15h-59.15zM690.19 184.94h59.15v59.14h-59.15zM631.05 717.27h59.14v59.14h-59.14zM631.05 658.12h59.14v59.15h-59.14zM631.05 598.98h59.14v59.14h-59.14zM631.05 539.83h59.14v59.15h-59.14zM631.05 480.68h59.14v59.14h-59.14z" fill="#333333" p-id="2255"></path><path d="M631.05 421.53h59.14v59.15h-59.14zM631.05 362.39h59.14v59.14h-59.14z" fill="#7CC0F2" p-id="2256"></path><path d="M631.05 303.24h59.14v59.15h-59.14zM631.05 244.08h59.14v59.15h-59.14z" fill="#BBE7FF" p-id="2257"></path><path d="M631.05 184.94h59.14v59.14h-59.14zM571.9 776.42h59.15v59.15H571.9zM571.9 717.27h59.15v59.14H571.9z" fill="#333333" p-id="2258"></path><path d="M571.9 658.12h59.15v59.15H571.9zM571.9 598.98h59.15v59.14H571.9zM571.9 539.83h59.15v59.15H571.9zM571.9 480.68h59.15v59.14H571.9z" fill="#0B80E0" p-id="2259"></path><path d="M571.9 421.53h59.15v59.15H571.9zM571.9 362.39h59.15v59.14H571.9zM571.9 303.24h59.15v59.15H571.9zM571.9 244.08h59.15v59.15H571.9zM512.75 835.57h59.14v59.14h-59.14zM512.75 776.42h59.14v59.15h-59.14z" fill="#333333" p-id="2260"></path><path d="M512.75 717.27h59.14v59.14h-59.14zM512.75 658.12h59.14v59.15h-59.14z" fill="#0B80E0" p-id="2261"></path><path d="M512.75 598.98h59.14v59.14h-59.14zM512.75 539.83h59.14v59.15h-59.14zM512.75 480.68h59.14v59.14h-59.14zM512.75 421.53h59.14v59.15h-59.14z" fill="#75C7F9" p-id="2262"></path><path d="M512.75 362.39h59.14v59.14h-59.14z" fill="#0B80E0" p-id="2263"></path><path d="M512.75 303.24h59.14v59.15h-59.14zM512.75 244.08h59.14v59.15h-59.14zM453.6 835.57h59.15v59.14H453.6z" fill="#333333" p-id="2264"></path><path d="M453.6 776.42h59.15v59.15H453.6zM453.6 717.27h59.15v59.14H453.6z" fill="#0B80E0" p-id="2265"></path><path d="M453.6 658.12h59.15v59.15H453.6zM453.6 598.98h59.15v59.14H453.6z" fill="#75C7F9" p-id="2266"></path><path d="M453.6 539.83h59.15v59.15H453.6zM453.6 480.68h59.15v59.14H453.6z" fill="#333333" p-id="2267"></path><path d="M453.6 421.53h59.15v59.15H453.6zM453.6 362.39h59.15v59.14H453.6z" fill="#75C7F9" p-id="2268"></path><path d="M453.6 303.24h59.15v59.15H453.6zM453.6 244.08h59.15v59.15H453.6z" fill="#0B80E0" p-id="2269"></path><path d="M453.6 184.94h59.15v59.14H453.6zM394.45 835.57h59.15v59.14h-59.15z" fill="#333333" p-id="2270"></path><path d="M394.45 776.42h59.15v59.15h-59.15z" fill="#0B80E0" p-id="2271"></path><path d="M394.45 717.27h59.15v59.14h-59.15zM394.45 658.12h59.15v59.15h-59.15zM394.45 598.98h59.15v59.14h-59.15zM394.45 539.83h59.15v59.15h-59.15zM394.45 480.68h59.15v59.14h-59.15zM394.45 421.53h59.15v59.15h-59.15zM394.45 362.39h59.15v59.14h-59.15zM394.45 303.24h59.15v59.15h-59.15z" fill="#75C7F9" p-id="2272"></path><path d="M394.45 244.08h59.15v59.15h-59.15z" fill="#0B80E0" p-id="2273"></path><path d="M394.45 184.94h59.15v59.14h-59.15z" fill="#BBE7FF" p-id="2274"></path><path d="M394.45 125.79h59.15v59.15h-59.15zM335.31 835.57h59.14v59.14h-59.14z" fill="#333333" p-id="2275"></path><path d="M335.31 776.42h59.14v59.15h-59.14z" fill="#0B80E0" p-id="2276"></path><path d="M335.31 717.27h59.14v59.14h-59.14zM335.31 658.12h59.14v59.15h-59.14zM335.31 598.98h59.14v59.14h-59.14zM335.31 539.83h59.14v59.15h-59.14zM335.31 480.68h59.14v59.14h-59.14zM335.31 421.53h59.14v59.15h-59.14zM335.31 362.39h59.14v59.14h-59.14zM335.31 303.24h59.14v59.15h-59.14z" fill="#75C7F9" p-id="2277"></path><path d="M335.31 244.08h59.14v59.15h-59.14z" fill="#BBE7FF" p-id="2278"></path><path d="M335.31 184.94h59.14v59.14h-59.14zM276.15 835.57h59.15v59.14h-59.15zM276.15 776.42h59.15v59.15h-59.15z" fill="#333333" p-id="2279"></path><path d="M276.15 717.27h59.15v59.14h-59.15z" fill="#BBE7FF" p-id="2280"></path><path d="M276.15 658.12h59.15v59.15h-59.15zM276.15 598.98h59.15v59.14h-59.15z" fill="#75C7F9" p-id="2281"></path><path d="M276.15 539.83h59.15v59.15h-59.15zM276.15 480.68h59.15v59.14h-59.15z" fill="#333333" p-id="2282"></path><path d="M276.15 421.53h59.15v59.15h-59.15zM276.15 362.39h59.15v59.14h-59.15z" fill="#75C7F9" p-id="2283"></path><path d="M276.15 303.24h59.15v59.15h-59.15z" fill="#BBE7FF" p-id="2284"></path><path d="M276.15 244.08h59.15v59.15h-59.15zM217.01 776.42h59.14v59.15h-59.14z" fill="#333333" p-id="2285"></path><path d="M217.01 717.27h59.14v59.14h-59.14z" fill="#BBE7FF" p-id="2286"></path><path d="M217.01 658.12h59.14v59.15h-59.14zM217.01 598.98h59.14v59.14h-59.14zM217.01 539.83h59.14v59.15h-59.14zM217.01 480.68h59.14v59.14h-59.14z" fill="#75C7F9" p-id="2287"></path><path d="M217.01 421.53h59.14v59.15h-59.14zM217.01 362.39h59.14v59.14h-59.14z" fill="#BBE7FF" p-id="2288"></path><path d="M217.01 303.24h59.14v59.15h-59.14zM157.86 717.27h59.15v59.14h-59.15z" fill="#333333" p-id="2289"></path><path d="M157.86 658.12h59.15v59.15h-59.15zM157.86 598.98h59.15v59.14h-59.15zM157.86 539.83h59.15v59.15h-59.15zM157.86 480.68h59.15v59.14h-59.15z" fill="#BBE7FF" p-id="2290"></path><path d="M157.86 421.53h59.15v59.15h-59.15zM157.86 362.39h59.15v59.14h-59.15zM98.71 658.12h59.14v59.15H98.71zM98.71 598.98h59.14v59.14H98.71zM98.71 539.83h59.14v59.15H98.71zM98.71 480.68h59.14v59.14H98.71z" fill="#333333" p-id="2291"></path></svg>