<?xml version="1.0" standalone="no"?><!DOCTYPE svg PUBLIC "-//W3C//DTD SVG 1.1//EN" "http://www.w3.org/Graphics/SVG/1.1/DTD/svg11.dtd"><svg t="1656658721089" class="icon" viewBox="0 0 1024 1024" version="1.1" xmlns="http://www.w3.org/2000/svg" p-id="1759" xmlns:xlink="http://www.w3.org/1999/xlink" width="200" height="200"><defs><style type="text/css">@font-face { font-family: feedback-iconfont; src: url("//at.alicdn.com/t/font_1031158_u69w8yhxdu.woff2?t=1630033759944") format("woff2"), url("//at.alicdn.com/t/font_1031158_u69w8yhxdu.woff?t=1630033759944") format("woff"), url("//at.alicdn.com/t/font_1031158_u69w8yhxdu.ttf?t=1630033759944") format("truetype"); }
</style></defs><path d="M216 760V326.4C216 261.6 269.6 208 334.4 208h83.2c11.2 0 21.6 8 23.2 19.2 7.2 35.2 38.4 60.8 74.4 60.8s67.2-25.6 74.4-60.8C592 216 601.6 208 612.8 208H688c65.6 0 118.4 53.6 118.4 118.4V760H216z" fill="#FFCFF3" p-id="1760"></path><path d="M689.6 224c56 0 102.4 46.4 102.4 102.4V744H232V326.4c0-56 46.4-102.4 102.4-102.4h83.2c4 0 7.2 3.2 8 6.4C434.4 272.8 472 304 516 304s81.6-31.2 90.4-73.6c0.8-4 4-6.4 8-6.4h75.2m0-32h-75.2c-19.2 0-35.2 13.6-39.2 32-5.6 28-30.4 48-58.4 48s-52.8-20-58.4-48c-4-18.4-20-32-39.2-32H334.4C260.8 192 200 252.8 200 326.4V776h624V326.4c0-73.6-60.8-134.4-134.4-134.4z" fill="#E0389C" p-id="1761"></path><path d="M236 816c-11.2 0-20-8.8-20-20V760h192v36c0 11.2-8.8 20-20 20h-152z" fill="#FFCFF3" p-id="1762"></path><path d="M392 776v20c0 2.4-1.6 4-4 4h-152c-2.4 0-4-1.6-4-4V776h160m32-32H200v52c0 20 16 36 36 36h152c20 0 36-16 36-36V744z" fill="#E0389C" p-id="1763"></path><path d="M636 816c-11.2 0-20-8.8-20-20V760h192v36c0 11.2-8.8 20-20 20h-152z" fill="#FFCFF3" p-id="1764"></path><path d="M792 776v20c0 2.4-1.6 4-4 4h-152c-2.4 0-4-1.6-4-4V776h160m32-32H600v52c0 20 16 36 36 36h152c20 0 36-16 36-36V744zM424 744h-32V408c0-8.8 7.2-16 16-16s16 7.2 16 16v336z" fill="#E0389C" p-id="1765"></path><path d="M512 744h280V326.4c0-56-46.4-102.4-102.4-102.4h-75.2c-4 0-7.2 3.2-8 6.4C597.6 272.8 556 304 512 304" fill="#F4ABDA" p-id="1766"></path><path d="M632 744h-32V408c0-8.8 7.2-16 16-16s16 7.2 16 16v336z" fill="#E0389C" p-id="1767"></path></svg>