<?xml version="1.0" standalone="no"?><!DOCTYPE svg PUBLIC "-//W3C//DTD SVG 1.1//EN" "http://www.w3.org/Graphics/SVG/1.1/DTD/svg11.dtd"><svg t="1656658706298" class="icon" viewBox="0 0 1024 1024" version="1.1" xmlns="http://www.w3.org/2000/svg" p-id="1293" xmlns:xlink="http://www.w3.org/1999/xlink" width="200" height="200"><defs><style type="text/css">@font-face { font-family: feedback-iconfont; src: url("//at.alicdn.com/t/font_1031158_u69w8yhxdu.woff2?t=1630033759944") format("woff2"), url("//at.alicdn.com/t/font_1031158_u69w8yhxdu.woff?t=1630033759944") format("woff"), url("//at.alicdn.com/t/font_1031158_u69w8yhxdu.ttf?t=1630033759944") format("truetype"); }
</style></defs><path d="M253.6 824c-6.4 0-12-2.4-16-7.2s-5.6-11.2-4.8-16.8l104-582.4c1.6-9.6 10.4-16.8 20.8-16.8h308.8c10.4 0 18.4 7.2 20.8 16.8l104 582.4c0.8 6.4-0.8 12-4.8 16.8s-9.6 7.2-16 7.2H253.6z" fill="#C0C0FF" p-id="1294"></path><path d="M666.4 216c2.4 0 4 1.6 4.8 4l104 582.4c0.8 3.2-1.6 5.6-4.8 5.6H253.6c-3.2 0-5.6-2.4-4.8-5.6l104-582.4c0-2.4 2.4-4 4.8-4h308.8m0-32H357.6c-17.6 0-32.8 12.8-36 30.4l-104 582.4c-1.6 10.4 0.8 21.6 8 29.6s17.6 12.8 28 12.8h516.8c11.2 0 21.6-4.8 28-12.8 7.2-8 9.6-19.2 8-29.6l-104-582.4c-3.2-17.6-18.4-30.4-36-30.4z" fill="#594BC8" p-id="1295"></path><path d="M442.4 288.8H316.8v-32h125.6c8.8 0 16 7.2 16 16s-7.2 16-16 16z" fill="#594BC8" p-id="1296"></path><path d="M512 216h154.4c2.4 0 4 1.6 4.8 4l104 582.4c0.8 3.2-1.6 5.6-4.8 5.6H512" fill="#B0A7F7" p-id="1297"></path><path d="M528 704v104h-32V704c0-8.8 7.2-16 16-16s16 7.2 16 16zM423.2 744v64h-32v-64c0-8.8 7.2-16 16-16s16 7.2 16 16zM318.4 784v24h-32v-24c0-8.8 7.2-16 16-16s16 7.2 16 16zM598.4 744v64h32v-64c0-8.8-7.2-16-16-16s-16 7.2-16 16zM700 784v24h32v-24c0-8.8-7.2-16-16-16s-16 7.2-16 16z" fill="#594BC8" p-id="1298"></path><path d="M584 288.8h125.6v-32H584c-8.8 0-16 7.2-16 16s7.2 16 16 16z" fill="#594BC8" p-id="1299"></path></svg>